<svg width="40" height="40" viewBox="0 0 40 40" fill="none" xmlns="http://www.w3.org/2000/svg">
<path d="M19 9L15 5L20 0L25 5L21 9V17.5858L30.2929 8.29292L31.7071 9.70713L22.4142 19H31L35 15L40 20L35 25L31 21H22.4142L31.7071 30.2929L30.2929 31.7071L21 22.4142V32.126C22.7252 32.5701 24 34.1362 24 36C24 38.2091 22.2091 40 20 40C17.7909 40 16 38.2091 16 36C16 34.1362 17.2748 32.5701 19 32.126V22.4142L9.70711 31.7071L8.29289 30.2929L17.5858 21H7.87398C7.42994 22.7252 5.86384 24 4 24C1.79086 24 0 22.2091 0 20C0 17.7909 1.79086 16 4 16C5.86384 16 7.42994 17.2748 7.87398 19H17.5858L8.29289 9.70711L9.70711 8.29289L19 17.5858V9Z" fill="black"/>
</svg>
