<svg width="95" height="23" viewBox="0 0 95 23" fill="none" xmlns="http://www.w3.org/2000/svg">
<path d="M10.5568 2.91103C5.10283 2.91103 0.944824 6.90703 0.944824 12.55C0.944824 18.193 5.10282 22.162 10.5838 22.162C15.6058 22.162 19.0348 18.652 19.7908 14.818V11.524H9.58483V14.413H16.0648C15.4978 17.086 13.6348 18.76 10.7188 18.76C7.20883 18.76 4.83282 16.384 4.83282 12.55C4.83282 8.79703 7.18182 6.39403 10.5568 6.39403C12.5548 6.39403 14.1208 7.23103 14.9848 8.82403H19.3318C18.1168 5.04403 14.7688 2.91103 10.5568 2.91103Z" fill="black"/>
<path d="M21.6694 12.55C21.6694 18.193 25.8004 22.162 31.2274 22.162C35.4124 22.162 38.8144 19.948 40.0834 16.06H35.7364C34.8454 17.896 33.2254 18.787 31.2004 18.787C27.9064 18.787 25.5574 16.357 25.5574 12.55C25.5574 8.71603 27.9064 6.31303 31.2004 6.31303C33.2254 6.31303 34.8454 7.20403 35.7364 9.01303H40.0834C38.8144 5.15203 35.4124 2.91103 31.2274 2.91103C25.8004 2.91103 21.6694 6.90703 21.6694 12.55Z" fill="black"/>
<path d="M49.7456 3.15403V22H59.7356V19.003H53.5256V3.15403H49.7456Z" fill="black"/>
<path d="M62.1382 22H65.9182V7.04203H62.1382V22ZM64.0552 5.26003C65.3782 5.26003 66.3772 4.28803 66.3772 3.04603C66.3772 1.80403 65.3782 0.832031 64.0552 0.832031C62.7052 0.832031 61.7332 1.80403 61.7332 3.04603C61.7332 4.28803 62.7052 5.26003 64.0552 5.26003Z" fill="black"/>
<path d="M70.2469 17.356C70.2469 20.785 72.1639 22 75.0259 22H77.4019V18.814H75.6469C74.4589 18.814 74.0539 18.382 74.0539 17.383V10.147H77.4019V7.04203H74.0539V3.34303H70.2469V7.04203H68.4649V10.147H70.2469V17.356Z" fill="black"/>
<path d="M86.5466 9.90403C88.4906 9.90403 90.0566 11.146 90.1106 13.117H83.0096C83.3066 11.065 84.7376 9.90403 86.5466 9.90403ZM93.6476 17.302H89.5706C89.0846 18.301 88.1936 19.111 86.5736 19.111C84.6836 19.111 83.1716 17.869 82.9826 15.655H93.9176C93.9986 15.169 94.0256 14.683 94.0256 14.197C94.0256 9.74203 90.9746 6.79903 86.6546 6.79903C82.2266 6.79903 79.1486 9.79603 79.1486 14.521C79.1486 19.219 82.3076 22.243 86.6546 22.243C90.3536 22.243 92.8376 20.056 93.6476 17.302Z" fill="black"/>
</svg>
